<?xml version="1.0" encoding="UTF-8"?>
<svg height="128px" viewBox="0 0 128 128" width="128px" xmlns="http://www.w3.org/2000/svg" xmlns:xlink="http://www.w3.org/1999/xlink">
    <linearGradient id="a" gradientTransform="matrix(0.232143 0 0 0.328947 -9.123131 263.832458)" gradientUnits="userSpaceOnUse" x1="88.595886" x2="536.595886" y1="-449.394012" y2="-449.394012">
        <stop offset="0" stop-color="#c0bfbc"/>
        <stop offset="0.0384615" stop-color="#f6f5f4"/>
        <stop offset="0.0768555" stop-color="#c0bfbc"/>
        <stop offset="0.923077" stop-color="#deddda"/>
        <stop offset="0.961538" stop-color="#c0bfbc"/>
        <stop offset="1" stop-color="#c0bfbc"/>
    </linearGradient>
    <radialGradient id="b" cx="-256" cy="311.779755" gradientTransform="matrix(1 0 0 0.607197 367.443787 -75.306259)" gradientUnits="userSpaceOnUse" r="52.002365">
        <stop offset="0" stop-opacity="0.05098"/>
        <stop offset="1" stop-opacity="0"/>
    </radialGradient>
    <path d="m 19.445312 16.003906 h 88 c 4.417969 0 8 3.582032 8 8 v 84 c 0 4.417969 -3.582031 8 -8 8 h -88 c -4.417968 0 -8 -3.582031 -8 -8 v -84 c 0 -4.417968 3.582032 -8 8 -8 z m 0 0" fill="url(#a)"/>
    <path d="m 19.941406 47.851562 c -4.699218 0 -8.5 3.800782 -8.5 8.5 v 50.152344 c 0 4.699219 3.800782 8.5 8.5 8.5 h 87.003906 c 4.699219 0 8.5 -3.800781 8.5 -8.5 v -50.152344 c 0 -4.699218 -3.800781 -8.5 -8.5 -8.5 z m 0 1 h 87.003906 c 3.109376 0 5.761719 1.863282 6.898438 4.542969 c -1.539062 -2.144531 -4.050781 -3.542969 -6.898438 -3.542969 h -87.003906 c -2.847656 0 -5.359375 1.398438 -6.902344 3.542969 c 1.140626 -2.679687 3.792969 -4.542969 6.902344 -4.542969 z m 0 2 h 87.003906 c 3.109376 0 5.761719 1.863282 6.898438 4.542969 c -1.539062 -2.144531 -4.050781 -3.542969 -6.898438 -3.542969 h -87.003906 c -2.847656 0 -5.359375 1.398438 -6.902344 3.542969 c 1.140626 -2.679687 3.792969 -4.542969 6.902344 -4.542969 z m 0 2 h 87.003906 c 4.164063 0 7.5 3.335938 7.5 7.5 v 42.152344 c 0 4.164063 -3.335937 7.5 -7.5 7.5 h -87.003906 c -4.164062 0 -7.5 -3.335937 -7.5 -7.5 v -42.152344 c 0 -4.164062 3.335938 -7.5 7.5 -7.5 z m -6.902344 54.609376 c 1.542969 2.144531 4.054688 3.542968 6.902344 3.542968 h 87.003906 c 2.847657 0 5.359376 -1.398437 6.898438 -3.542968 c -1.136719 2.679687 -3.789062 4.542968 -6.898438 4.542968 h -87.003906 c -3.109375 0 -5.761718 -1.863281 -6.902344 -4.542968 z m 0 2 c 1.542969 2.144531 4.054688 3.542968 6.902344 3.542968 h 87.003906 c 2.847657 0 5.359376 -1.398437 6.898438 -3.542968 c -1.136719 2.679687 -3.789062 4.542968 -6.898438 4.542968 h -87.003906 c -3.109375 0 -5.761718 -1.863281 -6.902344 -4.542968 z m 0 0" fill="url(#b)"/>
    <path d="m 19.445312 8.003906 h 88 c 4.417969 0 8 3.582032 8 8 v 84 c 0 4.417969 -3.582031 8 -8 8 h -88 c -4.417968 0 -8 -3.582031 -8 -8 v -84 c 0 -4.417968 3.582032 -8 8 -8 z m 0 0" fill="#deddda"/>
    <g fill="#62a0ea">
        <path d="m 25.445312 42.003906 h 78 v 2 h -78 z m 0 0"/>
        <path d="m 25.445312 74.003906 h 78 v 2 h -78 z m 0 0"/>
        <path d="m 49.445312 20.003906 v 78 h -2 v -78 z m 0 0"/>
        <path d="m 81.445312 20.003906 v 78 h -2 v -78 z m 0 0"/>
    </g>
    <path d="m 49.445312 44.007812 h 30 v 30 h -30 z m 0 0" fill="#2ec27e" fill-opacity="0.654902"/>
    <path d="m 58.089844 17.261719 v 6.324219 h 3.699218 v -2.929688 h 5.964844 l -6.453125 14.597656 h 4.523438 l 6.683593 -15.292968 v -2.699219 z m 0 0" fill="#241f31"/>
    <path d="m 100.6875 25.074219 c 1.128906 -0.699219 1.78125 -1.765625 1.78125 -3.136719 c 0 -2.675781 -2.390625 -4.351562 -5.894531 -4.351562 c -3.460938 0 -5.855469 1.675781 -5.855469 4.351562 c 0 1.371094 0.632812 2.4375 1.761719 3.136719 c -1.457031 0.738281 -2.304688 1.957031 -2.304688 3.589843 c 0 2.871094 2.546875 4.675782 6.398438 4.675782 c 3.871093 0 6.441406 -1.804688 6.441406 -4.675782 c 0 -1.632812 -0.851563 -2.851562 -2.328125 -3.589843 z m -4.113281 -4.898438 c 1.433593 0 2.390625 0.71875 2.390625 1.914063 c 0 1.15625 -0.933594 1.871094 -2.390625 1.871094 c -1.4375 0 -2.351563 -0.714844 -2.351563 -1.871094 c 0 -1.195313 0.9375 -1.914063 2.351563 -1.914063 z m 0 10.574219 c -1.742188 0 -2.832031 -0.847656 -2.832031 -2.195312 c 0 -1.351563 1.089843 -2.175782 2.832031 -2.175782 c 1.761719 0 2.871093 0.824219 2.871093 2.175782 c 0 1.347656 -1.109374 2.195312 -2.871093 2.195312 z m 0 0" fill="#3584e4"/>
    <path d="m 28.875 17.847656 v 2.828125 h 3.046875 v 12.40625 h 3.523437 v -15.234375 z m 0 0" fill="#241f31"/>
    <path d="m 37.925781 94.007812 h -2.480469 v -2.851562 h -3.328124 v 2.851562 h -4.09375 l 6.660156 -9.160156 h -3.699219 l -7.179687 9.660156 v 2.371094 h 8.203124 v 3.199219 h 3.4375 v -3.199219 h 2.480469 z m 0 0" fill="#241f31"/>
    <path d="m 52.445312 79.039062 v -3 h -3.644531 c -0.8125 0 -1.417969 -0.605468 -1.417969 -1.417968 v -3.613282 h -3 v 3.613282 c 0 2.421875 1.996094 4.417968 4.417969 4.417968 z m 23.9375 0 v -3 h 3.644532 c 0.8125 0 1.417968 -0.605468 1.417968 -1.417968 v -3.613282 h 3 v 3.613282 c 0 2.421875 -1.996093 4.417968 -4.417968 4.417968 z m -23.9375 -40.03125 v 3 h -3.644531 c -0.8125 0 -1.417969 0.605469 -1.417969 1.417969 v 3.613281 h -3 v -3.613281 c 0 -2.421875 1.996094 -4.417969 4.417969 -4.417969 z m 23.9375 0 v 3 h 3.644532 c 0.8125 0 1.417968 0.605469 1.417968 1.417969 v 3.613281 h 3 v -3.613281 c 0 -2.421875 -1.996093 -4.417969 -4.417968 -4.417969 z m 0 0" fill="#23905d"/>
    <path d="m 63.9375 55.960938 h -1.242188 l 0.238282 -2.894532 h 6.355468 v -2.828125 h -9.292968 l -0.78125 8.574219 h 3.894531 c 2.761719 0 3.546875 0.78125 3.546875 1.980469 c 0 1.238281 -1.089844 1.980469 -2.851562 1.980469 c -1.585938 0 -3.175782 -0.5 -4.328126 -1.371094 l -1.394531 2.699218 c 1.480469 1.042969 3.699219 1.628907 5.8125 1.628907 c 4.351563 0 6.332031 -2.347657 6.332031 -5.046875 c 0 -2.699219 -1.785156 -4.722656 -6.289062 -4.722656 z m 0 0" fill="#ffffff"/>
    <path d="m 52.445312 78.007812 v -3 h -3.644531 c -0.8125 0 -1.417969 -0.605468 -1.417969 -1.417968 v -3.613282 h -3 v 3.613282 c 0 2.421875 1.996094 4.417968 4.417969 4.417968 z m 23.9375 0 v -3 h 3.644532 c 0.8125 0 1.417968 -0.605468 1.417968 -1.417968 v -3.613282 h 3 v 3.613282 c 0 2.421875 -1.996093 4.417968 -4.417968 4.417968 z m -23.9375 -40.03125 v 3 h -3.644531 c -0.8125 0 -1.417969 0.605469 -1.417969 1.417969 v 3.613281 h -3 v -3.613281 c 0 -2.421875 1.996094 -4.417969 4.417969 -4.417969 z m 23.9375 0 v 3 h 3.644532 c 0.8125 0 1.417968 0.605469 1.417968 1.417969 v 3.613281 h 3 v -3.613281 c 0 -2.421875 -1.996093 -4.417969 -4.417968 -4.417969 z m 0 0" fill="#2ec27e"/>
    <path d="m 58.90625 49.152344 h 0.585938 v -4.582032 h -0.585938 l -1.25 0.878907 v 0.601562 l 1.203125 -0.847656 h 0.046875 z m 4.300781 0 h 3.050781 v -0.507813 h -2.371093 l 0.140625 0.09375 v -0.265625 l -0.15625 0.265625 l 1.21875 -1.234375 c 0.285156 -0.277344 0.503906 -0.515625 0.664062 -0.710937 c 0.15625 -0.191407 0.269532 -0.375 0.332032 -0.539063 c 0.0625 -0.164062 0.09375 -0.332031 0.09375 -0.511718 c 0 -0.246094 -0.0625 -0.464844 -0.1875 -0.664063 c -0.128907 -0.191406 -0.300782 -0.339844 -0.523438 -0.445313 c -0.222656 -0.113281 -0.472656 -0.171874 -0.742188 -0.171874 c -0.296874 0 -0.566406 0.0625 -0.808593 0.1875 c -0.234375 0.113281 -0.417969 0.277343 -0.554688 0.492187 c -0.125 0.210937 -0.1875 0.445313 -0.1875 0.710937 l 0.015625 0.015626 h 0.550782 v -0.015626 c 0 -0.171874 0.039062 -0.328124 0.113281 -0.464843 c 0.082031 -0.128907 0.191406 -0.234375 0.332031 -0.308594 c 0.144531 -0.078125 0.316406 -0.121094 0.503906 -0.121094 c 0.179688 0 0.335938 0.039063 0.460938 0.105469 c 0.132812 0.074219 0.242187 0.179688 0.316406 0.308594 c 0.070312 0.125 0.109375 0.273437 0.109375 0.433594 c 0 0.136718 -0.027344 0.257812 -0.078125 0.371093 c -0.042969 0.117188 -0.121094 0.242188 -0.238281 0.386719 c -0.105469 0.132812 -0.261719 0.308594 -0.457031 0.523438 l -1.597657 1.667968 z m 7.988281 0.078125 c 0.316407 0 0.59375 -0.058594 0.839844 -0.167969 c 0.253906 -0.125 0.445313 -0.285156 0.585938 -0.480469 c 0.144531 -0.203125 0.21875 -0.429687 0.21875 -0.679687 v -0.015625 c 0 -0.328125 -0.109375 -0.589844 -0.332032 -0.785157 c -0.210937 -0.191406 -0.484374 -0.308593 -0.820312 -0.339843 v -0.015625 c 0.1875 -0.03125 0.355469 -0.09375 0.503906 -0.183594 c 0.160156 -0.101562 0.277344 -0.226562 0.367188 -0.371094 c 0.082031 -0.15625 0.125 -0.324218 0.125 -0.507812 v -0.015625 c 0 -0.226563 -0.0625 -0.425781 -0.191406 -0.605469 c -0.117188 -0.183594 -0.292969 -0.320312 -0.519532 -0.414062 c -0.222656 -0.101563 -0.484375 -0.15625 -0.777344 -0.15625 c -0.296874 0 -0.5625 0.054687 -0.789062 0.15625 c -0.222656 0.105468 -0.40625 0.246093 -0.539062 0.429687 c -0.125 0.1875 -0.207032 0.402344 -0.238282 0.648437 v 0.046876 h 0.570313 v -0.046876 c 0.019531 -0.152343 0.070312 -0.28125 0.160156 -0.382812 c 0.082031 -0.113281 0.191406 -0.203125 0.332031 -0.265625 c 0.144532 -0.058594 0.316406 -0.089844 0.503906 -0.089844 c 0.191407 0 0.347657 0.03125 0.476563 0.089844 c 0.132813 0.054687 0.242187 0.136719 0.316406 0.25 c 0.070313 0.113281 0.109375 0.253906 0.109375 0.414063 c 0 0.15625 -0.042968 0.292968 -0.125 0.417968 c -0.089844 0.117188 -0.203125 0.207032 -0.347656 0.277344 c -0.140625 0.074219 -0.300781 0.109375 -0.492188 0.109375 h -0.554687 v 0.476563 h 0.585937 c 0.324219 0 0.585938 0.078124 0.777344 0.230468 c 0.195313 0.15625 0.300782 0.371094 0.300782 0.648438 c 0 0.167968 -0.050782 0.308594 -0.144532 0.433594 c -0.085937 0.125 -0.207031 0.222656 -0.363281 0.292968 c -0.152344 0.074219 -0.328125 0.109375 -0.539063 0.109375 c -0.308593 0 -0.5625 -0.070312 -0.757812 -0.21875 c -0.203125 -0.140625 -0.3125 -0.328125 -0.332031 -0.554687 v -0.03125 h -0.570313 v 0.046875 c 0.019532 0.238281 0.097656 0.457031 0.238282 0.648437 c 0.144531 0.183594 0.339843 0.335938 0.585937 0.449219 c 0.238281 0.097656 0.519531 0.152344 0.835937 0.152344 z m -14.085937 -6.285157" fill="#ffffff"/>
    <path d="m 54.148438 60.304688 h 0.5625 v -0.96875 h 0.65625 v -0.515626 h -0.65625 v -3.15625 h -0.84375 c -0.125 0.1875 -0.257813 0.386719 -0.390626 0.59375 c -0.136718 0.210938 -0.273437 0.421876 -0.40625 0.640626 c -0.136718 0.210937 -0.273437 0.421874 -0.40625 0.640624 c -0.136718 0.210938 -0.273437 0.421876 -0.40625 0.640626 c -0.125 0.210937 -0.25 0.421874 -0.375 0.640624 v 0.515626 h 2.265626 z m -1.671876 -1.484376 v -0.03125 c 0.101563 -0.175781 0.207032 -0.351562 0.3125 -0.53125 c 0.113282 -0.175781 0.222657 -0.351562 0.328126 -0.53125 c 0.113281 -0.175781 0.226562 -0.351562 0.34375 -0.53125 c 0.113281 -0.175781 0.222656 -0.347656 0.328124 -0.515624 c 0.113282 -0.164063 0.222657 -0.328126 0.328126 -0.484376 h 0.03125 v 2.625 z m -1.085937 -4.785156" fill="#ffffff"/>
    <path d="m 57.804688 72.179688 h 0.546874 l 1.90625 -3.765626 v -0.5 h -2.828124 v 0.484376 h 2.28125 v 0.03125 z m 6.90625 0.078124 c 0.300781 0 0.566406 -0.054687 0.796874 -0.15625 c 0.226563 -0.113281 0.410157 -0.257812 0.546876 -0.4375 c 0.132812 -0.1875 0.203124 -0.398437 0.203124 -0.640624 c 0 -0.175782 -0.042968 -0.335938 -0.125 -0.484376 c -0.074218 -0.15625 -0.179687 -0.285156 -0.3125 -0.390624 c -0.136718 -0.101563 -0.296874 -0.175782 -0.484374 -0.21875 v -0.015626 c 0.238281 -0.070312 0.425781 -0.191406 0.5625 -0.359374 c 0.132812 -0.164063 0.203124 -0.359376 0.203124 -0.578126 v -0.015624 c 0 -0.207032 -0.0625 -0.394532 -0.1875 -0.5625 c -0.117187 -0.175782 -0.28125 -0.3125 -0.5 -0.40625 c -0.210937 -0.09375 -0.445312 -0.140626 -0.703124 -0.140626 c -0.273438 0 -0.515626 0.046876 -0.734376 0.140626 c -0.210937 0.09375 -0.375 0.230468 -0.5 0.40625 c -0.117187 0.167968 -0.171874 0.355468 -0.171874 0.5625 v 0.015624 c 0 0.21875 0.066406 0.414063 0.203124 0.578126 c 0.144532 0.167968 0.332032 0.289062 0.5625 0.359374 v 0.015626 c -0.179687 0.042968 -0.339843 0.117187 -0.484374 0.21875 c -0.136719 0.105468 -0.242188 0.234374 -0.3125 0.390624 c -0.074219 0.148438 -0.109376 0.308594 -0.109376 0.484376 c 0 0.242187 0.0625 0.453124 0.1875 0.640624 c 0.132813 0.179688 0.316407 0.324219 0.546876 0.4375 c 0.238281 0.101563 0.507812 0.15625 0.8125 0.15625 z m 0 -0.46875 c -0.199219 0 -0.375 -0.03125 -0.53125 -0.09375 c -0.148438 -0.070312 -0.265626 -0.164062 -0.359376 -0.28125 c -0.085937 -0.125 -0.125 -0.265624 -0.125 -0.421874 s 0.039063 -0.289063 0.125 -0.40625 c 0.09375 -0.125 0.210938 -0.21875 0.359376 -0.28125 c 0.15625 -0.070313 0.332031 -0.109376 0.53125 -0.109376 c 0.1875 0 0.359374 0.039063 0.515624 0.109376 c 0.15625 0.0625 0.273438 0.15625 0.359376 0.28125 c 0.082031 0.117187 0.125 0.25 0.125 0.40625 s -0.046876 0.296874 -0.140626 0.421874 c -0.085937 0.117188 -0.203124 0.210938 -0.359374 0.28125 c -0.148438 0.0625 -0.3125 0.09375 -0.5 0.09375 z m 0 -2.0625 c -0.179688 0 -0.335938 -0.03125 -0.46875 -0.09375 c -0.125 -0.0625 -0.226563 -0.144531 -0.296876 -0.25 c -0.074218 -0.101562 -0.109374 -0.222656 -0.109374 -0.359374 v -0.015626 c 0 -0.132812 0.035156 -0.253906 0.109374 -0.359374 c 0.070313 -0.101563 0.171876 -0.1875 0.296876 -0.25 c 0.132812 -0.0625 0.289062 -0.09375 0.46875 -0.09375 c 0.164062 0 0.3125 0.03125 0.4375 0.09375 c 0.132812 0.0625 0.238281 0.148437 0.3125 0.25 c 0.070312 0.105468 0.109374 0.226562 0.109374 0.359374 v 0.015626 c 0 0.136718 -0.039062 0.257812 -0.109374 0.359374 c -0.074219 0.105469 -0.179688 0.1875 -0.3125 0.25 c -0.125 0.0625 -0.273438 0.09375 -0.4375 0.09375 z m 5.980468 -1.90625 c -0.292968 0 -0.554687 0.0625 -0.78125 0.1875 c -0.21875 0.125 -0.398437 0.304688 -0.53125 0.53125 c -0.125 0.21875 -0.1875 0.46875 -0.1875 0.75 c 0 0.273438 0.0625 0.515626 0.1875 0.734376 s 0.289063 0.390624 0.5 0.515624 c 0.207032 0.117188 0.445313 0.171876 0.71875 0.171876 c 0.1875 0 0.351563 -0.023438 0.5 -0.078126 c 0.15625 -0.0625 0.285156 -0.144531 0.390625 -0.25 c 0.101563 -0.101562 0.179688 -0.210937 0.234375 -0.328124 h 0.109375 v -0.765626 h -0.171875 c 0 0.1875 -0.046875 0.355469 -0.140625 0.5 c -0.085937 0.148438 -0.199219 0.261719 -0.34375 0.34375 c -0.148437 0.085938 -0.3125 0.125 -0.5 0.125 c -0.179687 0 -0.339843 -0.039062 -0.484375 -0.125 c -0.148437 -0.082031 -0.261718 -0.195312 -0.34375 -0.34375 c -0.085937 -0.144531 -0.125 -0.316406 -0.125 -0.515624 c 0 -0.1875 0.039063 -0.351563 0.125 -0.5 c 0.09375 -0.144532 0.210938 -0.257813 0.359375 -0.34375 c 0.144531 -0.09375 0.304688 -0.140626 0.484375 -0.140626 c 0.175782 0 0.335938 0.046876 0.484375 0.140626 c 0.144531 0.085937 0.257813 0.203124 0.34375 0.359374 c 0.09375 0.148438 0.140625 0.3125 0.140625 0.5 l 0.125 0.71875 v 0.078126 v 0.078124 c -0.011718 0.292969 -0.058594 0.5625 -0.140625 0.8125 c -0.085937 0.25 -0.210937 0.453126 -0.375 0.609376 c -0.15625 0.148437 -0.359375 0.21875 -0.609375 0.21875 c -0.148437 0 -0.277344 -0.019532 -0.390625 -0.0625 c -0.117187 -0.050782 -0.214843 -0.117188 -0.296875 -0.203126 c -0.074218 -0.09375 -0.132812 -0.195312 -0.171875 -0.3125 l -0.015625 -0.03125 h -0.53125 v 0.03125 c 0.050782 0.210938 0.140625 0.398438 0.265625 0.5625 c 0.132813 0.15625 0.296875 0.277344 0.484375 0.359376 c 0.1875 0.082031 0.398438 0.125 0.640625 0.125 c 0.34375 0 0.632813 -0.089844 0.875 -0.265626 c 0.25 -0.1875 0.4375 -0.445312 0.5625 -0.78125 c 0.132813 -0.34375 0.203125 -0.757812 0.203125 -1.25 c 0 -0.40625 -0.046875 -0.742187 -0.140625 -1.015624 c -0.09375 -0.28125 -0.21875 -0.503907 -0.375 -0.671876 c -0.148437 -0.164062 -0.320312 -0.285156 -0.515625 -0.359374 c -0.1875 -0.070313 -0.375 -0.109376 -0.5625 -0.109376 z m -13.660156 -1.402343" fill="#ffffff"/>
    <path d="m 75.644531 60.671875 c 0.300781 0 0.566407 -0.0625 0.796875 -0.1875 c 0.226563 -0.132813 0.410156 -0.316406 0.546875 -0.546875 c 0.132813 -0.226562 0.203125 -0.488281 0.203125 -0.78125 c 0 -0.28125 -0.0625 -0.53125 -0.1875 -0.75 c -0.125 -0.226562 -0.296875 -0.40625 -0.515625 -0.53125 s -0.464843 -0.1875 -0.734375 -0.1875 c -0.199218 0 -0.375 0.03125 -0.53125 0.09375 s -0.292968 0.148438 -0.40625 0.25 c -0.105468 0.105469 -0.183594 0.214844 -0.234375 0.328125 h -0.109375 v 0.796875 h 0.1875 v -0.015625 c 0 -0.1875 0.039063 -0.351563 0.125 -0.5 c 0.09375 -0.144531 0.210938 -0.257813 0.359375 -0.34375 c 0.15625 -0.09375 0.328125 -0.140625 0.515625 -0.140625 s 0.351563 0.046875 0.5 0.140625 c 0.144532 0.085937 0.257813 0.203125 0.34375 0.359375 c 0.082032 0.148438 0.125 0.3125 0.125 0.5 v 0.015625 c 0 0.1875 -0.046875 0.359375 -0.140625 0.515625 c -0.085937 0.148438 -0.199219 0.265625 -0.34375 0.359375 c -0.148437 0.09375 -0.3125 0.140625 -0.5 0.140625 s -0.355469 -0.046875 -0.5 -0.140625 c -0.148437 -0.09375 -0.265625 -0.21875 -0.359375 -0.375 c -0.085937 -0.15625 -0.125 -0.328125 -0.125 -0.515625 l -0.140625 -0.734375 c 0 -0.03125 0 -0.054687 0 -0.078125 c 0 -0.03125 0.003907 -0.0625 0.015625 -0.09375 c 0.007813 -0.300781 0.050782 -0.578125 0.125 -0.828125 c 0.082032 -0.257813 0.207032 -0.46875 0.375 -0.625 c 0.164063 -0.15625 0.378906 -0.234375 0.640625 -0.234375 c 0.15625 0 0.289063 0.027344 0.40625 0.078125 c 0.113281 0.054687 0.210938 0.121094 0.296875 0.203125 c 0.082032 0.085938 0.144532 0.1875 0.1875 0.3125 l 0.015625 0.03125 h 0.546875 l -0.015625 -0.03125 c -0.042969 -0.21875 -0.132812 -0.40625 -0.265625 -0.5625 c -0.136718 -0.164062 -0.304687 -0.289062 -0.5 -0.375 c -0.199218 -0.09375 -0.417968 -0.140625 -0.65625 -0.140625 c -0.355468 0 -0.65625 0.09375 -0.90625 0.28125 s -0.445312 0.460937 -0.578125 0.8125 c -0.136719 0.355469 -0.203125 0.78125 -0.203125 1.28125 c 0 0.417969 0.046875 0.765625 0.140625 1.046875 s 0.21875 0.511719 0.375 0.6875 c 0.164063 0.167969 0.34375 0.292969 0.53125 0.375 c 0.195313 0.070312 0.394531 0.109375 0.59375 0.109375 z m -2.148437 -6.035156" fill="#ffffff"/>
</svg>
